<?xml version="1.0" standalone="no"?>
<!DOCTYPE svg PUBLIC "-//W3C//DTD SVG 20010904//EN"
 "http://www.w3.org/TR/2001/REC-SVG-20010904/DTD/svg10.dtd">
<svg version="1.0" xmlns="http://www.w3.org/2000/svg"
 width="1598.000000pt" height="1598.000000pt" viewBox="0 0 1598.000000 1598.000000"
 preserveAspectRatio="xMidYMid meet">
<g transform="translate(0.000000,1598.000000) scale(0.100000,-0.100000)"
fill="#000000" stroke="none">
<path d="M7795 13034 c-16 -2 -77 -9 -135 -15 -1051 -111 -1995 -852 -2356
-1849 -134 -367 -192 -707 -181 -1050 5 -137 24 -368 32 -378 1 -1 65 -7 141
-12 178 -13 371 -36 501 -59 l101 -18 67 156 c94 218 253 531 321 631 193 286
494 583 779 769 235 153 522 279 784 345 231 58 393 78 644 80 l218 2 48 95
c137 269 326 523 588 789 l114 116 -118 61 c-379 197 -751 304 -1158 333 -132
9 -324 11 -390 4z"/>
<path d="M9739 12333 c-86 -64 -239 -196 -286 -245 l-32 -33 353 -400 354
-399 128 -68 c71 -37 130 -66 131 -64 1 1 -88 250 -198 552 -217 595 -201 561
-320 664 l-55 49 -75 -56z"/>
<path d="M9227 11828 c-41 -51 -98 -127 -126 -168 l-52 -74 133 -27 c206 -41
468 -114 668 -186 8 -3 -109 119 -260 271 -151 152 -278 276 -281 276 -4 0
-40 -42 -82 -92z"/>
<path d="M10376 11690 c31 -80 108 -282 171 -450 115 -304 116 -305 167 -352
28 -26 54 -47 58 -48 9 0 -33 154 -77 278 -68 195 -165 397 -279 577 -94 151
-100 150 -40 -5z"/>
<path d="M8292 11282 c-10 -7 -3 -104 34 -478 25 -258 48 -476 52 -484 3 -8 9
17 13 55 28 238 86 541 146 764 30 110 33 135 22 142 -18 11 -249 12 -267 1z"/>
<path d="M8002 11269 c-173 -16 -378 -83 -523 -169 l-68 -40 28 -63 c87 -192
894 -1933 898 -1937 3 -3 3 103 0 235 -5 219 -15 317 -106 1109 -56 478 -101
871 -101 873 0 4 -21 3 -128 -8z"/>
<path d="M8837 11134 c-58 -190 -87 -324 -70 -324 30 0 55 45 128 224 43 107
77 198 74 201 -3 3 -26 8 -50 11 l-45 6 -37 -118z"/>
<path d="M9037 11043 c-37 -91 -65 -168 -63 -170 3 -3 606 148 641 161 23 8
-253 110 -399 147 -45 11 -88 22 -96 24 -11 4 -32 -37 -83 -162z"/>
<path d="M7166 10869 c-112 -92 -175 -154 -293 -286 l-83 -93 383 -512 c210
-282 494 -663 631 -845 l248 -333 51 -15 c64 -19 128 -19 172 -1 l35 15 -34
73 c-74 160 -998 2063 -1004 2070 -5 4 -52 -29 -106 -73z"/>
<path d="M9363 10792 l-481 -146 -98 -245 -97 -246 -13 -140 c-24 -246 -33
-601 -22 -865 21 -480 -21 -653 -178 -747 -103 -62 -153 -76 -284 -81 -203 -7
-361 37 -690 193 -357 169 -630 279 -980 393 -254 83 -379 117 -389 106 -21
-23 -118 -503 -148 -732 l-17 -136 99 -94 c333 -314 763 -548 1215 -662 829
-208 1683 -47 2380 450 139 98 334 273 450 402 310 343 514 714 645 1169 63
216 105 515 105 738 l0 110 -38 10 c-52 14 -104 55 -153 121 -46 62 -176 162
-409 315 -172 113 -382 236 -402 234 -7 -1 -230 -67 -495 -147z"/>
<path d="M6610 10214 c-79 -122 -241 -456 -317 -651 -3 -8 32 -23 99 -44 214
-66 422 -152 691 -283 258 -126 408 -195 596 -275 56 -24 71 -27 59 -14 -9 10
-248 311 -533 668 -284 358 -523 656 -530 664 -11 12 -22 1 -65 -65z"/>
<path d="M5320 9119 c60 -153 131 -294 232 -462 l35 -58 7 49 c7 57 68 308 97
401 10 35 18 65 17 67 -4 3 -266 41 -346 50 l-63 7 21 -54z"/>
<path d="M9185 5506 c-167 -43 -276 -144 -325 -303 -26 -83 -90 -454 -90 -519
0 -84 26 -153 79 -205 58 -59 120 -79 256 -86 262 -13 430 87 505 301 29 81
90 438 90 524 0 41 -5 93 -12 116 -17 57 -99 137 -163 160 -65 23 -269 30
-340 12z m157 -226 c9 0 30 -14 47 -31 27 -27 31 -38 31 -85 0 -82 -58 -392
-83 -444 -32 -66 -74 -90 -158 -90 -87 0 -118 23 -126 90 -6 51 48 380 73 447
17 48 71 100 112 109 15 3 32 7 37 9 6 2 19 2 30 0 11 -3 28 -5 37 -5z"/>
<path d="M14048 5506 c-132 -30 -240 -111 -290 -217 -35 -75 -42 -104 -84
-336 -51 -282 -48 -379 13 -461 53 -71 187 -109 352 -99 228 13 366 107 421
286 11 35 20 74 20 87 l0 24 -134 0 -134 0 -7 -28 c-17 -81 -80 -132 -163
-132 -91 0 -121 27 -122 108 0 66 56 394 76 441 30 71 80 103 161 105 44 0 57
-4 79 -25 46 -46 51 -144 12 -221 l-18 -38 133 0 134 0 28 61 c33 75 45 194
24 266 -17 64 -95 143 -164 167 -65 24 -257 30 -337 12z"/>
<path d="M1835 5498 c-2 -7 -45 -247 -95 -533 -49 -286 -92 -528 -94 -537 -4
-17 8 -18 133 -18 l137 0 30 168 30 167 154 6 c162 6 201 15 280 65 53 33 107
94 129 144 24 56 61 247 61 318 0 107 -55 180 -158 212 -57 18 -94 20 -333 20
-207 0 -271 -3 -274 -12z m452 -254 c23 -24 25 -31 21 -88 -7 -79 -32 -132
-72 -153 -42 -22 -216 -32 -216 -12 0 15 40 248 45 267 3 8 32 12 100 12 90 0
98 -2 122 -26z"/>
<path d="M2937 5497 c-2 -7 -89 -249 -192 -537 -103 -288 -190 -530 -192 -537
-4 -10 26 -13 141 -13 l146 0 37 120 37 120 129 0 130 0 -6 -120 -6 -120 144
0 145 0 0 550 0 550 -254 0 c-197 0 -255 -3 -259 -13z m255 -359 c-2 -57 -7
-143 -10 -193 l-7 -90 -97 -3 c-54 -1 -98 1 -98 6 0 10 110 364 117 375 2 4
25 7 51 7 l47 0 -3 -102z"/>
<path d="M3700 5507 c0 -1 -9 -49 -20 -107 -11 -58 -20 -111 -20 -117 0 -10
44 -13 185 -13 170 0 185 -1 185 -17 -1 -10 -34 -204 -74 -430 l-72 -413 137
0 137 0 6 28 c3 15 33 185 66 377 33 193 65 374 71 402 l10 53 187 2 187 3 16
80 c9 44 19 97 23 118 l7 37 -516 0 c-283 0 -515 -1 -515 -3z"/>
<path d="M4743 5398 c-11 -62 -18 -116 -16 -120 2 -5 88 -8 190 -8 l185 0 -5
-22 c-6 -23 -147 -825 -147 -834 0 -3 62 -3 138 -2 l137 3 75 428 75 427 187
0 c186 0 188 0 193 23 10 48 35 190 35 203 0 12 -82 14 -513 14 l-514 0 -20
-112z"/>
<path d="M5920 5506 c0 -3 -43 -247 -95 -543 -52 -296 -95 -541 -95 -545 0 -5
172 -7 382 -6 l383 3 20 115 21 115 -243 3 -243 2 0 23 c1 12 6 51 13 87 l12
65 202 3 c200 2 203 3 208 25 11 49 35 183 35 200 0 16 -16 17 -201 17 l-201
0 6 33 c3 17 10 62 17 99 l11 68 246 2 247 3 16 89 c10 49 20 102 23 117 l6
29 -385 0 c-212 0 -385 -2 -385 -4z"/>
<path d="M6865 5498 c-2 -7 -45 -247 -95 -533 -49 -286 -92 -528 -94 -537 -4
-17 8 -18 143 -18 l147 0 30 203 30 202 49 3 50 3 33 -108 c18 -59 47 -152 64
-205 l31 -98 154 0 154 0 -7 23 c-4 12 -36 112 -71 222 l-63 200 23 15 c78 51
120 129 149 274 42 215 0 311 -153 352 -73 19 -567 21 -574 2z m418 -252 c50
-46 45 -156 -9 -207 -23 -21 -37 -24 -120 -27 -52 -2 -94 -1 -94 2 0 12 30
211 35 234 5 20 11 22 84 22 68 0 81 -3 104 -24z"/>
<path d="M7870 5506 c0 -3 -43 -247 -95 -543 -52 -296 -95 -541 -95 -546 0 -4
62 -6 137 -5 l137 3 50 292 c28 161 53 289 57 285 4 -4 21 -52 39 -107 17 -55
58 -184 91 -287 l60 -188 140 0 c82 0 139 4 139 10 0 10 177 1031 185 1068 5
22 5 22 -133 22 l-137 0 -44 -252 c-25 -139 -47 -264 -51 -278 -5 -18 -25 31
-87 211 -45 129 -87 254 -94 277 l-12 42 -144 0 c-78 0 -143 -2 -143 -4z"/>
<path d="M9861 4983 c-51 -291 -95 -538 -98 -551 l-5 -23 138 3 139 3 36 206
c64 364 71 400 76 395 2 -2 20 -60 39 -127 19 -68 41 -148 49 -176 l16 -53 98
0 99 0 114 179 c62 99 114 176 116 171 2 -4 -20 -135 -47 -291 -28 -156 -51
-289 -51 -296 0 -10 31 -13 135 -13 131 0 135 1 140 23 10 47 185 1048 185
1062 0 13 -24 15 -142 15 l-143 -1 -173 -260 c-95 -144 -175 -259 -177 -257
-3 2 -40 119 -84 259 l-79 254 -144 3 -144 3 -93 -528z"/>
<path d="M11230 5053 c-90 -252 -178 -500 -196 -551 l-34 -93 147 3 147 3 36
115 36 115 127 3 128 3 -3 -121 -3 -120 143 0 142 0 0 550 0 550 -253 0 -254
0 -163 -457z m414 75 c-2 -62 -7 -150 -10 -195 l-6 -83 -93 0 c-52 0 -96 3
-98 8 -4 5 67 248 108 370 3 7 23 12 54 12 l51 0 -6 -112z"/>
<path d="M12135 5413 c-9 -54 -19 -108 -22 -120 l-5 -23 189 -2 189 -3 -73
-410 c-39 -225 -72 -418 -72 -427 -1 -16 12 -18 134 -18 131 0 135 1 140 23 7
28 145 820 145 830 0 4 86 7 190 7 105 0 190 1 190 3 0 2 9 53 20 113 11 60
20 112 20 117 0 4 -231 7 -514 7 l-514 0 -17 -97z"/>
<path d="M13305 5488 c-10 -48 -185 -1049 -185 -1063 0 -12 23 -15 134 -15
l134 0 6 28 c9 39 186 1055 186 1064 0 5 -61 8 -135 8 -131 0 -135 -1 -140
-22z"/>
<path d="M3520 3635 c0 -96 3 -115 15 -115 11 0 15 12 15 50 l0 50 50 0 c64 0
66 18 3 22 -48 3 -48 3 -51 41 l-3 37 55 0 c43 0 56 3 56 15 0 12 -14 15 -70
15 l-70 0 0 -115z"/>
<path d="M3777 3743 c-4 -3 -7 -55 -7 -115 0 -89 3 -108 15 -108 12 0 15 19
15 115 0 105 -5 127 -23 108z"/>
<path d="M3930 3636 c0 -95 3 -116 15 -116 11 0 15 18 17 84 l3 85 64 -85 c35
-46 68 -84 72 -84 5 0 9 52 9 115 0 135 -18 158 -22 28 l-3 -88 -65 84 c-36
47 -71 86 -77 89 -10 3 -13 -24 -13 -112z"/>
<path d="M4230 3635 l0 -115 55 0 c67 0 109 20 130 60 19 37 19 73 -1 111 -19
38 -68 59 -134 59 l-50 0 0 -115z m149 59 c28 -35 27 -86 -1 -119 -18 -20 -34
-26 -68 -28 l-45 -2 -3 88 -3 87 50 0 c42 0 53 -4 70 -26z"/>
<path d="M4550 3730 c-39 -39 -18 -90 42 -105 35 -9 51 -29 43 -54 -8 -27 -32
-34 -72 -20 -40 13 -55 5 -27 -16 40 -30 107 -13 124 31 14 36 -3 62 -56 84
-31 14 -44 25 -44 39 0 28 32 44 64 31 31 -11 45 4 17 19 -31 17 -69 13 -91
-9z"/>
<path d="M4900 3636 l0 -116 60 0 c47 0 60 3 60 15 0 11 -12 15 -45 15 l-44 0
-3 97 c-2 66 -7 98 -15 101 -10 3 -13 -24 -13 -112z"/>
<path d="M5130 3635 c0 -96 3 -115 15 -115 12 0 15 19 15 115 0 96 -3 115 -15
115 -12 0 -15 -19 -15 -115z"/>
<path d="M5290 3635 c0 -135 18 -158 22 -28 l3 88 65 -84 c36 -47 71 -86 78
-89 9 -3 12 24 12 113 0 89 -3 116 -12 113 -9 -3 -15 -34 -18 -87 l-5 -82 -63
85 c-35 47 -68 86 -73 86 -5 0 -9 -52 -9 -115z"/>
<path d="M5644 3740 c-38 -15 -64 -59 -64 -107 0 -38 5 -50 34 -79 27 -27 42
-34 75 -34 22 0 52 5 66 12 21 9 25 18 25 55 0 43 0 43 -35 43 -19 0 -35 -4
-35 -10 0 -5 9 -10 20 -10 15 0 20 -7 20 -30 0 -25 -4 -30 -34 -35 -36 -7 -72
6 -93 34 -20 26 -15 85 9 116 20 26 25 27 80 22 61 -5 77 6 32 23 -30 12 -71
12 -100 0z"/>
<path d="M5890 3660 c0 -83 2 -93 25 -115 32 -33 84 -33 121 -1 26 21 28 30
32 115 4 79 2 91 -12 91 -13 0 -16 -13 -16 -79 0 -90 -17 -123 -63 -123 -47 0
-56 16 -59 110 -2 57 -7 87 -15 90 -10 3 -13 -19 -13 -88z"/>
<path d="M6190 3635 c0 -96 3 -115 15 -115 12 0 15 19 15 115 0 96 -3 115 -15
115 -12 0 -15 -19 -15 -115z"/>
<path d="M6362 3734 c-45 -31 -21 -94 41 -109 40 -10 51 -37 28 -66 -18 -22
-21 -23 -56 -10 -42 15 -58 8 -29 -14 51 -39 128 -2 122 58 -3 27 -10 35 -50
55 -33 15 -48 28 -48 42 0 27 34 44 60 30 28 -15 49 -1 25 17 -25 17 -65 17
-93 -3z"/>
<path d="M6560 3735 c0 -10 11 -15 35 -15 l35 0 0 -100 c0 -82 3 -100 15 -100
12 0 15 18 15 100 l0 100 35 0 c24 0 35 5 35 15 0 12 -16 15 -85 15 -69 0 -85
-3 -85 -15z"/>
<path d="M6840 3636 c0 -98 2 -116 15 -116 13 0 15 17 13 112 -2 78 -7 113
-15 116 -10 3 -13 -24 -13 -112z"/>
<path d="M7034 3731 c-93 -56 -53 -211 54 -211 39 0 86 25 77 40 -3 5 -18 2
-34 -6 -63 -31 -127 19 -118 91 8 56 38 78 99 73 52 -5 64 7 22 22 -38 15 -65
12 -100 -9z"/>
<path d="M7407 3743 c-4 -3 -7 -55 -7 -115 0 -87 3 -108 14 -108 10 0 16 14
18 43 3 41 4 42 45 48 23 3 48 11 57 18 17 14 21 67 8 88 -16 25 -117 45 -135
26z m112 -45 c14 -34 -9 -62 -53 -66 l-36 -3 0 45 0 46 40 0 c33 0 42 -4 49
-22z"/>
<path d="M7678 3635 c-35 -88 -43 -115 -31 -115 8 0 20 14 26 30 11 28 15 30
65 30 51 0 54 -2 65 -30 13 -33 43 -43 32 -11 -24 77 -84 206 -96 209 -11 2
-29 -31 -61 -113z m76 42 c32 -77 31 -77 -13 -77 -23 0 -41 3 -41 8 0 10 33
102 37 102 1 0 9 -15 17 -33z"/>
<path d="M7920 3735 c0 -10 11 -15 35 -15 l35 0 0 -100 c0 -82 3 -100 15 -100
12 0 15 18 15 100 l0 100 35 0 c24 0 35 5 35 15 0 12 -16 15 -85 15 -69 0 -85
-3 -85 -15z"/>
<path d="M8170 3735 c0 -10 11 -15 35 -15 l35 0 0 -100 c0 -82 3 -100 15 -100
12 0 15 18 15 100 l0 100 35 0 c24 0 35 5 35 15 0 12 -16 15 -85 15 -69 0 -85
-3 -85 -15z"/>
<path d="M8440 3635 l0 -115 70 0 c81 0 95 18 18 22 l-53 3 -3 38 -3 37 45 0
c34 0 46 4 46 15 0 11 -12 15 -45 15 -45 0 -45 0 -45 35 l0 35 55 0 c42 0 55
3 55 15 0 12 -14 15 -70 15 l-70 0 0 -115z"/>
<path d="M8697 3743 c-4 -3 -7 -55 -7 -115 0 -89 3 -108 15 -108 11 0 15 12
15 44 0 72 25 72 78 0 18 -24 40 -44 48 -44 11 0 6 14 -21 49 -35 48 -35 50
-16 61 45 24 38 92 -11 109 -35 12 -91 15 -101 4z m111 -51 c5 -33 -15 -52
-54 -52 -33 0 -34 1 -34 41 l0 40 43 -3 c35 -3 43 -7 45 -26z"/>
<path d="M8960 3636 c0 -95 3 -116 15 -116 11 0 15 18 17 84 l3 85 64 -85 c35
-46 68 -84 72 -84 5 0 9 52 9 115 0 135 -18 158 -22 28 l-3 -88 -65 84 c-36
47 -71 86 -77 89 -10 3 -13 -24 -13 -112z"/>
<path d="M9282 3734 c-45 -31 -21 -94 41 -109 40 -10 51 -37 28 -66 -18 -22
-21 -23 -56 -10 -42 15 -58 8 -29 -14 51 -39 128 -2 122 58 -3 27 -10 35 -50
55 -33 15 -48 28 -48 42 0 27 34 44 60 30 28 -15 49 -1 25 17 -25 17 -65 17
-93 -3z"/>
<path d="M9620 3635 l0 -115 70 0 c81 0 95 18 18 22 l-53 3 -3 38 -3 37 45 0
c34 0 46 4 46 15 0 11 -12 15 -45 15 -45 0 -45 0 -45 35 l0 35 55 0 c42 0 55
3 55 15 0 12 -14 15 -70 15 l-70 0 0 -115z"/>
<path d="M9870 3635 c0 -96 3 -115 15 -115 11 0 15 12 15 50 l0 50 50 0 c64 0
66 18 3 22 -48 3 -48 3 -51 41 l-3 37 55 0 c43 0 56 3 56 15 0 12 -14 15 -70
15 l-70 0 0 -115z"/>
<path d="M10120 3635 c0 -96 3 -115 15 -115 11 0 15 12 15 50 l0 50 45 0 c25
0 45 5 45 10 0 6 -20 10 -45 10 l-45 0 0 39 0 40 53 3 c75 4 64 22 -15 26
l-68 3 0 -116z"/>
<path d="M10414 3741 c-38 -17 -64 -60 -64 -108 0 -38 5 -50 34 -79 28 -28 42
-34 76 -34 34 0 48 6 76 34 45 45 48 105 7 155 -30 35 -88 49 -129 32z m105
-47 c55 -70 -7 -173 -86 -143 -37 14 -52 38 -53 80 0 54 31 89 80 89 30 0 43
-6 59 -26z"/>
<path d="M10680 3636 c0 -96 3 -116 15 -116 11 0 15 12 15 51 0 43 3 50 17 47
10 -2 34 -25 53 -51 20 -26 43 -47 53 -47 16 0 15 5 -10 38 -45 56 -45 59 -18
86 30 30 31 46 7 76 -14 18 -32 24 -75 28 l-57 4 0 -116z m114 62 c17 -27 -5
-52 -48 -56 l-36 -3 0 41 0 41 36 -3 c22 -2 42 -10 48 -20z"/>
<path d="M10930 3735 c0 -10 11 -15 35 -15 l35 0 0 -100 c0 -82 3 -100 15
-100 12 0 15 18 15 100 l0 100 35 0 c24 0 35 5 35 15 0 12 -16 15 -85 15 -69
0 -85 -3 -85 -15z"/>
<path d="M11200 3635 l0 -115 65 0 c51 0 65 3 65 15 0 11 -12 15 -50 15 l-50
0 0 100 c0 82 -3 100 -15 100 -12 0 -15 -19 -15 -115z"/>
<path d="M11430 3635 l0 -115 70 0 c40 0 70 4 70 10 0 6 -25 10 -55 10 l-55 0
0 39 c0 40 0 40 43 43 23 2 42 8 42 13 0 6 -19 11 -42 13 -42 3 -43 4 -43 37
0 34 0 34 52 37 30 2 53 8 56 16 3 9 -15 12 -67 12 l-71 0 0 -115z"/>
<path d="M11692 3734 c-45 -31 -21 -94 41 -109 40 -10 51 -37 28 -66 -18 -22
-21 -23 -56 -10 -42 15 -58 8 -29 -14 51 -39 128 -2 122 58 -3 27 -10 35 -50
55 -33 15 -48 28 -48 42 0 27 34 44 60 30 28 -15 49 -1 25 17 -25 17 -65 17
-93 -3z"/>
<path d="M11920 3730 c-39 -39 -18 -90 42 -105 35 -9 51 -29 43 -54 -8 -27
-32 -34 -72 -20 -40 13 -55 5 -27 -16 40 -30 107 -13 124 31 14 36 -3 62 -56
84 -31 14 -44 25 -44 39 0 28 32 44 64 31 31 -11 45 4 17 19 -31 17 -69 13
-91 -9z"/>
<path d="M12140 3635 l0 -115 65 0 c51 0 65 3 65 15 0 11 -12 15 -50 15 l-50
0 0 100 c0 82 -3 100 -15 100 -12 0 -15 -19 -15 -115z"/>
<path d="M12350 3744 c0 -4 18 -35 40 -70 31 -50 40 -73 40 -109 0 -33 4 -45
15 -45 11 0 15 12 15 48 0 30 8 60 21 82 12 19 30 50 41 68 16 26 17 32 5 32
-9 0 -31 -25 -50 -56 l-34 -57 -34 57 c-19 31 -39 56 -46 56 -7 0 -13 -3 -13
-6z"/>
</g>
</svg>
